PathFileType	4	(X/Y/Z)	C:\Users\86182\Documents\cortex\Trimmed_M3_H8.trc
DataRate	CameraRate	NumFrames	NumMarkers	Units	OrigDataRate	OrigDataStartFrame	OrigNumFrames
100.00	100.00	       98	2	mm	100.00	361	       901
Frame#	Time	gripper			box			
		X1	Y1	Z1	X2	Y2	Z2	

361	3.600	268.89941	172.74348	287.94019	267.71674	170.80295	151.97115	
362	3.610	268.91711	172.72635	288.32031	267.71805	170.79628	152.35591	
363	3.620	268.93582	172.71240	288.69138	267.72571	170.79120	152.72800	
364	3.630	268.95535	172.70285	289.04803	267.73816	170.78557	153.08208	
365	3.640	268.93979	172.71883	289.39743	267.75500	170.77832	153.41637	
366	3.650	268.86990	172.76938	289.74390	267.77637	170.77055	153.73369	
367	3.660	268.77863	172.83102	290.07587	267.80023	170.76468	154.03876	
368	3.670	268.72113	172.86769	290.37463	267.82132	170.76288	154.33351	
369	3.680	268.72931	172.86020	290.63007	267.83414	170.76619	154.61472	
370	3.690	268.79767	172.81523	290.84613	267.83630	170.77390	154.87556	
371	3.700	268.88327	172.76408	291.04187	267.83002	170.78345	155.10883	
372	3.710	268.91977	172.75165	291.24448	267.82074	170.79138	155.30885	
373	3.720	268.86588	172.80479	291.47009	267.81534	170.79442	155.47337	
374	3.730	268.73981	172.91051	291.71017	267.81946	170.79025	155.60426	
375	3.740	268.59018	173.03410	291.94238	267.83499	170.77824	155.70599	
376	3.750	268.45215	173.14810	292.14807	267.85931	170.76010	155.78357	
377	3.760	268.33887	173.23985	292.31732	267.88776	170.73920	155.84161	
378	3.770	268.25107	173.30721	292.44733	267.91589	170.71878	155.88441	
379	3.780	268.18500	173.35333	292.54019	267.94034	170.70078	155.91599	
380	3.790	268.13660	173.38274	292.60098	267.95880	170.68588	155.93959	
381	3.800	268.10342	173.39926	292.63599	267.97046	170.67415	155.95755	
382	3.810	268.08408	173.40584	292.65179	267.97623	170.66536	155.97133	
383	3.820	268.07687	173.40492	292.65436	267.97778	170.65923	155.98180	
384	3.830	268.07977	173.39867	292.64893	267.97687	170.65536	155.98943	
385	3.840	268.09042	173.38882	292.63928	267.97485	170.65326	155.99461	
386	3.850	268.10690	173.37672	292.62817	267.97296	170.65234	155.99788	
387	3.860	268.12753	173.36337	292.61734	267.97205	170.65205	155.99971	
388	3.870	268.15048	173.34984	292.60797	267.97263	170.65199	156.00063	
389	3.880	268.17352	173.33742	292.60086	267.97467	170.65198	156.00113	
390	3.890	268.19440	173.32730	292.59662	267.97781	170.65198	156.00150	
391	3.900	268.21124	173.32011	292.59512	267.98145	170.65211	156.00159	
392	3.910	268.22281	173.31564	292.59555	267.98465	170.65250	156.00085	
393	3.920	268.22787	173.31308	292.59625	267.98599	170.65337	155.99820	
394	3.930	268.22473	173.31113	292.59476	267.98352	170.65495	155.99216	
395	3.940	268.21103	173.30829	292.58783	267.97461	170.65749	155.98100	
396	3.950	268.18408	173.30298	292.57159	267.95621	170.66118	155.96292	
397	3.960	268.14145	173.29379	292.54205	267.92557	170.66617	155.93651	
398	3.970	268.08234	173.27974	292.49603	267.88116	170.67235	155.90154	
399	3.980	268.00952	173.26053	292.43268	267.82376	170.67947	155.85934	
400	3.990	267.92996	173.23669	292.35449	267.75726	170.68723	155.81270	
401	4.000	267.85318	173.20947	292.26782	267.68909	170.69539	155.76569	
402	4.010	267.78763	173.18079	292.18100	267.62759	170.70366	155.72278	
403	4.020	267.73840	173.15314	292.10205	267.57864	170.71155	155.68744	
404	4.030	267.70657	173.12869	292.03735	267.54407	170.71829	155.66135	
405	4.040	267.69080	173.10861	291.99066	267.52271	170.72295	155.64462	
406	4.050	267.68857	173.09311	291.96277	267.51202	170.72484	155.63628	
407	4.060	267.69675	173.08199	291.95197	267.50897	170.72383	155.63458	
408	4.070	267.71136	173.07480	291.95483	267.51065	170.72052	155.63759	
409	4.080	267.72769	173.07085	291.96649	267.51459	170.71588	155.64326	
410	4.090	267.74130	173.06908	291.98178	267.51910	170.71100	155.64970	
411	4.100	267.74930	173.06830	291.99585	267.52335	170.70680	155.65527	
412	4.110	267.75101	173.06764	292.00525	267.52686	170.70392	155.65891	
413	4.120	267.74741	173.06696	292.00836	267.52945	170.70271	155.66017	
414	4.130	267.74023	173.06674	292.00546	267.53119	170.70319	155.65915	
415	4.140	267.73129	173.06763	291.99817	267.53229	170.70488	155.65645	
416	4.150	267.72202	173.06989	291.98877	267.53290	170.70711	155.65297	
417	4.160	267.71362	173.07323	291.98029	267.53317	170.70924	155.64969	
418	4.170	267.70718	173.07700	291.97552	267.53314	170.71086	155.64728	
419	4.180	267.70343	173.08064	291.97607	267.53290	170.71182	155.64607	
420	4.190	267.70267	173.08391	291.98160	267.53244	170.71210	155.64607	
421	4.200	267.70477	173.08661	291.98975	267.53183	170.71182	155.64711	
422	4.210	267.70941	173.08849	291.99725	267.53116	170.71121	155.64874	
423	4.220	267.71558	173.08922	292.00137	267.53061	170.71057	155.65033	
424	4.230	267.72156	173.08864	292.00095	267.53033	170.71024	155.65114	
425	4.240	267.72592	173.08672	291.99631	267.53046	170.71039	155.65076	
426	4.250	267.72812	173.08368	291.98911	267.53085	170.71095	155.64938	
427	4.260	267.72885	173.07993	291.98175	267.53137	170.71164	155.64764	
428	4.270	267.72943	173.07588	291.97668	267.53189	170.71216	155.64616	
429	4.280	267.73099	173.07193	291.97565	267.53232	170.71228	155.64540	
430	4.290	267.73370	173.06824	291.97888	267.53256	170.71190	155.64551	
431	4.300	267.73676	173.06480	291.98529	267.53271	170.71098	155.64651	
432	4.310	267.73889	173.06169	291.99316	267.53278	170.70963	155.64825	
433	4.320	267.73972	173.05910	292.00052	267.53281	170.70807	155.65030	
434	4.330	267.74002	173.05743	292.00549	267.53284	170.70668	155.65211	
435	4.340	267.74139	173.05713	292.00671	267.53281	170.70592	155.65317	
436	4.350	267.74487	173.05849	292.00345	267.53275	170.70607	155.65308	
437	4.360	267.74982	173.06146	291.99615	267.53265	170.70712	155.65178	
438	4.370	267.75354	173.06560	291.98651	267.53265	170.70868	155.64969	
439	4.380	267.75269	173.07016	291.97711	267.53268	170.71028	155.64748	
440	4.390	267.74530	173.07448	291.97092	267.53268	170.71155	155.64583	
441	4.400	267.73230	173.07820	291.97015	267.53253	170.71223	155.64514	
442	4.410	267.71667	173.08124	291.97552	267.53217	170.71228	155.64563	
443	4.420	267.70218	173.08357	291.98596	267.53159	170.71170	155.64731	
444	4.430	267.69205	173.08501	291.99881	267.53079	170.71060	155.65001	
445	4.440	267.68823	173.08516	292.01059	267.52988	170.70921	155.65327	
446	4.450	267.69098	173.08362	292.01849	267.52905	170.70790	155.65628	
447	4.460	267.69897	173.08037	292.02118	267.52856	170.70708	155.65813	
448	4.470	267.71042	173.07603	292.01843	267.52859	170.70700	155.65820	
449	4.480	267.72400	173.07162	292.01105	267.52905	170.70766	155.65662	
450	4.490	267.73895	173.06812	292.00031	267.52982	170.70880	155.65392	
451	4.500	267.75421	173.06599	291.98798	267.53067	170.71010	155.65086	
452	4.510	267.76779	173.06525	291.97632	267.53143	170.71124	155.64816	
453	4.520	267.77713	173.06549	291.96777	267.53195	170.71204	155.64633	
454	4.530	267.78012	173.06638	291.96442	267.53217	170.71237	155.64555	
455	4.540	267.77591	173.06764	291.96695	267.53207	170.71228	155.64580	
456	4.550	267.76559	173.06931	291.97473	267.53177	170.71184	155.64687	
457	4.560	267.75159	173.07143	291.98575	267.53134	170.71121	155.64833	
458	4.570	267.73663	173.07396	291.99744	267.53098	170.71066	155.64966	
